<svg version="1.1" id="Слой_1" xmlns="http://www.w3.org/2000/svg" x="0" y="0" viewBox="0 0 828.3 473.7" xml:space="preserve"><style>.st0{fill:#fff}</style><path class="st0" d="M654.5 228.2c-.2.1-.5.4-.7.4l-8.4 2.7c-1.5.5-3 .9-4.5 1.4l-8.4 2.7c-.5.2-.9.2-1.4 0-3.6-1.2-7.2-2.3-10.9-3.5-.4-.1-.8-.2-1.2-.4-.3-.1-.5 0-.7.2-.8.9-1.2 2-1.4 3.1-.2.7-.2 1.4-.3 2.1 0 .1.1.3.2.4 1.3.8 1.4 2.9.2 3.9-.2.2-.3.4-.2.6.1.7.2 1.5.3 2.2.1 1 .3 2 .4 3l.3 2.4c0 .2.1.4 0 .7 0 .3-.2.5-.6.5h-3.8c-.4 0-.6-.3-.6-.7.1-.8.2-1.5.3-2.3.1-1 .3-2.1.4-3.1.1-1 .3-1.9.4-2.9 0-.1 0-.4-.2-.4-1.2-.8-1.3-3 0-3.9.2-.1.3-.4.4-.6.1-1.6.4-3.2 1.1-4.7.2-.5.5-.9.8-1.4-.5-.2-1-.3-1.4-.5-1.6-.5-3.3-1-4.9-1.5-.3-.1-.6-.2-.7-.6 0-.4.3-.6.6-.7 2.3-.7 4.6-1.4 6.8-2.1 4.8-1.5 9.6-3 14.4-4.6.8-.3 1.5-.1 2.2.2 3.6 1.1 7.3 2.3 10.9 3.4 2.2.7 4.3 1.4 6.5 2 1.1.3 2.1.7 3.2 1 .3.1.6.3.9.4v.6z"/><path class="st0" d="M619.5 234.4c1.5.5 2.9.9 4.4 1.4 1.9.6 3.8 1.1 5.6 1.8 1.7.6 3.2.5 4.8-.1l9.3-3c.1 0 .2-.1.4-.1 0 .2.1.4.1.5l.3 5.4c.1 1.1-.5 1.9-1.3 2.5-1.5 1.1-3.2 1.6-5 2.1-2.7.7-5.5.8-8.3.6-2.9-.2-5.8-.7-8.5-2.1-.9-.5-1.8-1.1-2.1-2.3-.1-.4-.1-.8-.1-1.1l.3-4.5c0-.3.1-.7.1-1.1z"/><path class="st0" d="M629.8 279.2c-.6-.1-1.2-.1-1.8-.2-8.8-.8-16.7-3.9-23.5-9.4-6.6-5.3-11.3-12-14.1-20.1-1-3-1.7-6.1-2-9.3-.3-2.9-.4-5.9-.1-8.8.8-8.2 3.7-15.6 8.7-22.2 4.9-6.5 11.2-11.2 18.7-14.2 3.2-1.3 6.5-2.1 10-2.6 3.1-.4 6.1-.6 9.2-.3 9 .7 17.1 3.8 24.1 9.5 6.6 5.3 11.3 12 14.1 20.1 1 3 1.7 6.1 2 9.3.1.9.2 1.9.3 2.8v3.7c-.1.6-.1 1.2-.2 1.8-.2 3.1-.8 6.2-1.8 9.2-2.7 8.5-7.5 15.6-14.5 21.2-6.9 5.5-14.7 8.6-23.5 9.4-.6.1-1.2.1-1.8.2-1.2-.1-2.5-.1-3.8-.1zm41.3-43.6c0-21.7-17.7-39.3-39.4-39.3-21.6 0-39.2 17.6-39.2 39.3 0 21.7 17.7 39.4 39.4 39.3 21.6-.1 39.2-17.7 39.2-39.3z"/></svg>