<svg version="1.1" id="Слой_1" xmlns="http://www.w3.org/2000/svg" x="0" y="0" viewBox="0 0 828.3 473.7" xml:space="preserve"><style>.st0{fill:#fff}</style><path class="st0" d="M418.2 289.6c-.6-.1-1.2-.1-1.8-.2-8.8-.8-16.7-3.9-23.5-9.4-6.6-5.3-11.3-12-14.1-20.1-1-3-1.7-6.1-2-9.3-.3-2.9-.4-5.9-.1-8.8.8-8.2 3.7-15.6 8.7-22.2 4.9-6.5 11.2-11.2 18.7-14.2 3.2-1.3 6.5-2.1 10-2.6 3.1-.4 6.1-.6 9.2-.3 9 .7 17.1 3.8 24.1 9.5 6.6 5.3 11.3 12 14.1 20.1 1 3 1.7 6.1 2 9.3.1.9.2 1.9.3 2.8v3.7c-.1.6-.1 1.2-.2 1.8-.2 3.1-.8 6.2-1.8 9.2-2.7 8.5-7.5 15.6-14.5 21.2-6.9 5.5-14.7 8.6-23.5 9.4-.6.1-1.2.1-1.8.2-1.2-.1-2.5-.1-3.8-.1zm41.3-43.6c0-21.7-17.7-39.3-39.4-39.3-21.6 0-39.2 17.6-39.2 39.3 0 21.7 17.7 39.4 39.4 39.3 21.6-.1 39.2-17.7 39.2-39.3z"/><path class="st0" d="M434 237.5c0 .6-.3 1-.6 1.4l-9.1 9.1-7.9 7.9c-.3.3-.8.6-1.2.7-3.3.9-6.5 1.8-9.8 2.6-1.1.3-1.8-.4-1.5-1.5.9-3.3 1.7-6.6 2.7-9.9.1-.4.4-.8.7-1.1 5.7-5.7 11.3-11.4 17-17 .9-.9 1.8-.9 2.7 0l6.5 6.5c.3.4.5.8.5 1.3zm-8.4-6l-15.2 15.2 6 6 15.2-15.2c-2-2-4.1-4-6-6zm-16.4 16.2c-.2.3-.4.5-.5.8-.3 1.1-.6 2.2-.9 3.4 0 .1 0 .4.1.5.9 1 1.9 1.9 2.9 2.9.1.1.3.2.5.1 1.1-.3 2.1-.5 3.2-.9.4-.1.7-.4 1-.6-2.2-2.1-4.3-4.1-6.3-6.2zm.1 8.2l-2.1-2.1c-.3.9-.5 1.9-.8 2.9 1-.3 1.9-.5 2.9-.8zm17.9.1h7.6c.6 0 .6 0 .6.6v1.1c0 .4-.1.6-.6.6h-15.2c-.6 0-.6 0-.6-.6v-1.2c0-.4.1-.5.5-.5h7.7zm2.9-2.4h-4.7c-.3 0-.5-.1-.5-.4v-1.5c0-.3.1-.4.4-.4h9.6c.3 0 .4.1.4.4v1.5c0 .4-.1.5-.5.5-1.5-.1-3.1-.1-4.7-.1z"/></svg>