<svg version="1.1" id="Слой_1" xmlns="http://www.w3.org/2000/svg" x="0" y="0" viewBox="0 0 140.1 166.7" xml:space="preserve"><style>.st3{fill:none;stroke:#fff;stroke-miterlimit:10}</style><circle cx="67.1" cy="57.2" r="52" fill="#009693"/><path d="M15.5 129.9v-8.2h.9v7.4h3.2v-7.4h.9v7.4h3.2v-7.4h.9v8.2h-9.1zm15.5 0h-.9l-2-2.5h-.9v2.5h-.8v-5.6h.8v2.3h.9l1.8-2.3h.9l-2 2.7 2.2 2.9zm2-.2c-.4-.3-.8-.6-1-1.1-.2-.5-.4-1-.4-1.6s.1-1.1.4-1.5c.2-.5.6-.8 1-1.1s.9-.4 1.4-.4c.5 0 1 .1 1.4.4.4.3.8.6 1 1.1.2.5.4 1 .4 1.5 0 .6-.1 1.1-.4 1.5-.2.5-.6.8-1 1.1-.4.3-.9.4-1.4.4-.5.1-1-.1-1.4-.3zm2.4-.7c.3-.2.5-.5.7-.8.2-.3.3-.7.3-1.2 0-.4-.1-.8-.3-1.2s-.4-.6-.7-.8c-.3-.2-.6-.3-1-.3s-.7.1-1 .3c-.3.2-.5.5-.7.8-.2.3-.3.7-.3 1.2 0 .4.1.8.3 1.2.2.3.4.6.7.8.3.2.6.3 1 .3s.7-.1 1-.3zm2.5.1h.4c.3 0 .6-.3.8-.9s.3-1.5.3-2.7v-1.3H43v5.6h-.8V125h-2.1v.8c0 1.2-.1 2.2-.4 3-.3.7-.8 1.1-1.5 1.1h-.3v-.8zm11.8-4.8v5.6h-.8v-.9c-.2.3-.5.6-.9.8s-.7.3-1.1.3c-.5 0-1-.1-1.4-.4-.4-.3-.8-.6-1-1.1-.2-.5-.4-1-.4-1.6 0-.6.1-1.1.4-1.5.2-.5.6-.8 1-1.1s.9-.4 1.4-.4c.4 0 .8.1 1.1.3.3.2.6.4.9.8v-.8h.8zM48 129c.3-.2.5-.5.7-.8.2-.3.3-.7.3-1.2 0-.4-.1-.8-.3-1.2s-.4-.6-.7-.8c-.3-.2-.6-.3-1-.3s-.7.1-1 .3c-.3.2-.5.5-.7.8-.2.3-.3.7-.3 1.2 0 .4.1.8.3 1.2.2.3.4.6.7.8.3.2.6.3 1 .3.3 0 .7-.1 1-.3zm6 .9v-5.6h4.7v5.6h-.8V125h-3.1v4.9H54zm10.6-5.4c.4.3.8.6 1 1.1.2.5.4 1 .4 1.6 0 .6-.1 1.1-.4 1.5s-.6.8-1 1.1-.9.4-1.4.4c-.4 0-.8-.1-1.1-.3s-.6-.4-.9-.8v3.2h-.8v-8h.8v.8c.2-.3.5-.6.9-.8s.7-.3 1.1-.3c.5.1.9.2 1.4.5zm-.4 4.5c.3-.2.5-.5.7-.8s.3-.7.3-1.2c0-.4-.1-.8-.3-1.2s-.4-.6-.7-.8c-.3-.2-.6-.3-1-.3s-.7.1-1 .3c-.3.2-.5.5-.7.8s-.3.7-.3 1.2c0 .4.1.8.3 1.2.2.3.4.6.7.8.3.2.6.3 1 .3.3 0 .7-.1 1-.3zm8.1-4.7v5.6h-.8v-.9c-.2.3-.5.6-.9.8s-.7.3-1.1.3c-.5 0-1-.1-1.4-.4-.4-.3-.8-.6-1-1.1-.2-.5-.4-1-.4-1.6 0-.6.1-1.1.4-1.5.2-.5.6-.8 1-1.1s.9-.4 1.4-.4c.4 0 .8.1 1.1.3.3.2.6.4.9.8v-.8h.8zm-1.8 4.7c.3-.2.5-.5.7-.8.2-.3.3-.7.3-1.2 0-.4-.1-.8-.3-1.2s-.4-.6-.7-.8c-.3-.2-.6-.3-1-.3s-.7.1-1 .3c-.3.2-.5.5-.7.8-.2.3-.3.7-.3 1.2 0 .4.1.8.3 1.2.2.3.4.6.7.8.3.2.6.3 1 .3s.7-.1 1-.3zm7.9.9h-.9l-2-2.5h-.9v2.5h-.8v-5.6h.8v2.3h.9l1.8-2.3h.9l-2 2.7 2.2 2.9zm.4-5.6H84v.7h-2.3v3.3c0 .3.1.5.3.7.2.2.4.3.7.3h.7v.7h-.7c-.6 0-1-.2-1.3-.5-.3-.3-.5-.7-.5-1.3V125h-2.1v-.7zm10.5 0h.8v5.6h-.8v-4.5l-3.3 4.5h-.8v-5.6h.8v4.5l3.3-4.5zm6.9 0v5.6h-.8v-2.4c-.2.2-.4.3-.7.4-.3.1-.6.1-.9.1-.6 0-1.1-.2-1.5-.5-.4-.3-.6-.9-.6-1.5v-1.8h.8v1.5c0 .4 0 .7.1 1s.2.4.5.5.5.1.9.1.7-.1 1-.2c.3-.1.4-.3.4-.5v-2.4h.8zm5.3.1c.4.2.7.6 1 1s.3.9.3 1.4v.3h-4.6c0 .6.2 1.1.6 1.5s.8.6 1.4.6c.5 0 .9-.1 1.2-.3.3-.2.6-.4.8-.8l.6.4c-.3.4-.6.7-1 1-.4.2-.9.4-1.5.4-.5 0-1-.1-1.5-.4s-.8-.6-1-1.1c-.2-.5-.4-1-.4-1.5 0-.6.1-1.1.4-1.5.2-.5.6-.8 1-1.1s.9-.4 1.4-.4c.5.2.9.3 1.3.5zm.5 2.2c-.1-.6-.3-1-.6-1.3-.3-.3-.7-.4-1.3-.4-.5 0-.9.2-1.3.5-.3.3-.5.8-.6 1.3h3.8zm3 3.1c-.4-.3-.8-.6-1-1.1s-.4-1-.4-1.5c0-.6.1-1.1.4-1.5.2-.5.6-.8 1-1.1.4-.3.9-.4 1.4-.4.5 0 .9.1 1.2.3.3.2.6.5.9.8l-.6.5c-.4-.6-.9-.9-1.5-.9-.4 0-.7.1-1 .3-.3.2-.5.5-.7.8s-.3.7-.3 1.2c0 .4.1.8.3 1.2.2.3.4.6.7.8.3.2.6.3 1 .3s.7-.1.9-.2.5-.3.7-.6l.6.4c-.3.3-.6.6-1 .8-.4.2-.8.3-1.3.3-.4 0-.8-.2-1.3-.4zm9.4.2h-.9l-2-2.5h-.9v2.5h-.8v-5.6h.8v2.3h.9l1.8-2.3h.9l-2 2.7 2.2 2.9zm1.9-.2c-.4-.3-.8-.6-1-1.1-.2-.5-.4-1-.4-1.6s.1-1.1.4-1.5c.2-.5.6-.8 1-1.1s.9-.4 1.4-.4 1 .1 1.4.4.8.6 1 1.1c.2.5.4 1 .4 1.5 0 .6-.1 1.1-.4 1.5-.2.5-.6.8-1 1.1s-.9.4-1.4.4-.9-.1-1.4-.3zm2.5-.7c.3-.2.5-.5.7-.8.2-.3.3-.7.3-1.2 0-.4-.1-.8-.3-1.2-.2-.3-.4-.6-.7-.8-.3-.2-.6-.3-1-.3s-.7.1-1 .3c-.3.2-.5.5-.7.8-.2.3-.3.7-.3 1.2 0 .4.1.8.3 1.2.2.3.4.6.7.8.3.2.6.3 1 .3.3 0 .7-.1 1-.3zm7.1-4.7h.8v5.6h-.8v-4.5l-3.3 4.5h-.8v-5.6h.8v4.5l3.3-4.5zm-2.9-1.2c-.3-.2-.5-.5-.5-.8h.8c0 .4.3.6.9.6.6 0 .9-.2.9-.6h.8c0 .4-.2.6-.5.8-.3.2-.7.3-1.2.3s-.9-.1-1.2-.3zm-85.9 16.8v-5.6h.8v2.3h3.3v-2.3h.8v5.6h-.8v-2.5h-3.3v2.5h-.8zm10.4-5.6h.8l-3 8h-.8l.9-2.3-2.3-5.7h.9l1.9 4.7 1.6-4.7zm6.7 0h.8v5.6h-.8v-4.4l-1.9 3.7h-.5l-1.8-3.6v4.3h-.8v-5.6h.9l2 4 2.1-4zm6.2.1c.4.2.7.6 1 1s.3.9.3 1.4v.3h-4.6c0 .6.2 1.1.6 1.5.3.4.8.6 1.4.6.5 0 .9-.1 1.2-.3.3-.2.6-.4.8-.8l.6.4c-.3.4-.6.7-1 1-.4.2-.9.4-1.5.4-.5 0-1-.1-1.5-.4-.4-.3-.8-.6-1-1.1-.2-.5-.4-1-.4-1.5 0-.6.1-1.1.4-1.5.2-.5.6-.8 1-1.1s.9-.4 1.4-.4c.5.2.9.3 1.3.5zm.5 2.2c-.1-.6-.3-1-.6-1.3s-.7-.4-1.3-.4c-.5 0-.9.2-1.3.5-.3.3-.5.8-.6 1.3h3.8zm6.3-2.1c.4.3.8.6 1 1.1.2.5.4 1 .4 1.6 0 .6-.1 1.1-.4 1.5s-.6.8-1 1.1-.9.4-1.4.4c-.4 0-.8-.1-1.1-.3s-.6-.4-.9-.8v3.2H63v-8h.8v.8c.2-.3.5-.6.9-.8s.7-.3 1.1-.3c.5.1.9.2 1.4.5zm-.4 4.5c.3-.2.5-.5.7-.8s.3-.7.3-1.2c0-.4-.1-.8-.3-1.2s-.4-.6-.7-.8c-.3-.2-.6-.3-1-.3s-.7.1-1 .3c-.3.2-.5.5-.7.8s-.3.7-.3 1.2c0 .4.1.8.3 1.2.2.3.4.6.7.8.3.2.6.3 1 .3.3 0 .7-.1 1-.3zm3.9.7c-.4-.3-.8-.6-1-1.1-.2-.5-.4-1-.4-1.6s.1-1.1.4-1.5c.2-.5.6-.8 1-1.1s.9-.4 1.4-.4 1 .1 1.4.4.8.6 1 1.1c.2.5.4 1 .4 1.5 0 .6-.1 1.1-.4 1.5-.2.5-.6.8-1 1.1s-.9.4-1.4.4-1-.1-1.4-.3zm2.4-.7c.3-.2.5-.5.7-.8.2-.3.3-.7.3-1.2 0-.4-.1-.8-.3-1.2s-.4-.6-.7-.8c-.3-.2-.6-.3-1-.3s-.7.1-1 .3c-.3.2-.5.5-.7.8-.2.3-.3.7-.3 1.2 0 .4.1.8.3 1.2.2.3.4.6.7.8.3.2.6.3 1 .3s.7-.1 1-.3zm2.5.1h.4c.3 0 .6-.3.8-.9.2-.6.3-1.5.3-2.7v-1.3h3.7v5.6H80V135h-2.1v.8c0 1.2-.1 2.2-.4 3-.3.7-.8 1.1-1.5 1.1h-.3v-.8zm7.6.6c-.4-.3-.8-.6-1-1.1-.2-.5-.4-1-.4-1.6s.1-1.1.4-1.5c.2-.5.6-.8 1-1.1s.9-.4 1.4-.4 1 .1 1.4.4.8.6 1 1.1c.2.5.4 1 .4 1.5 0 .6-.1 1.1-.4 1.5-.2.5-.6.8-1 1.1s-.9.4-1.4.4-1-.1-1.4-.3zm2.5-.7c.3-.2.5-.5.7-.8.2-.3.3-.7.3-1.2 0-.4-.1-.8-.3-1.2s-.4-.6-.7-.8c-.3-.2-.6-.3-1-.3s-.7.1-1 .3c-.3.2-.5.5-.7.8-.2.3-.3.7-.3 1.2 0 .4.1.8.3 1.2.2.3.4.6.7.8.3.2.6.3 1 .3.3 0 .7-.1 1-.3zm3 .9v-5.6h3.7v.7h-2.9v4.9h-.8zm8.9-5.6h.8v5.6h-.8v-4.5l-3.3 4.5h-.8v-5.6h.8v4.5l3.3-4.5zm6.6 0h.8v5.6h-.8v-4.5l-3.3 4.5h-.8v-5.6h.8v4.5l3.3-4.5z" fill="#db407b"/><path d="M6.2 161v-10.3h1.1v8.8l5.5-8.8h1.1V161h-1.1v-8.6L7.3 161H6.2zm9.3-.9h.5c.4 0 .8-.4 1-1.1.2-.7.4-1.9.4-3.4V154H22v7.1h-1V155h-2.7v1c0 1.6-.2 2.8-.5 3.8s-1 1.4-1.9 1.4h-.4v-1.1zm9.6.6c-.5-.3-1-.8-1.3-1.4-.3-.6-.5-1.2-.5-2 0-.7.1-1.4.4-1.9.3-.6.7-1 1.2-1.3s1.1-.5 1.8-.5 1.3.2 1.8.5 1 .8 1.3 1.3c.3.6.5 1.2.5 2s-.1 1.4-.4 2c-.3.6-.7 1-1.2 1.3-.5.3-1.1.5-1.8.5s-1.3-.1-1.8-.5zm3.1-.8c.4-.2.7-.6.9-1 .2-.4.3-.9.3-1.5 0-.5-.1-1-.3-1.5-.2-.4-.5-.8-.9-1-.4-.2-.8-.4-1.3-.4s-.9.1-1.3.4-.7.6-.9 1c-.2.4-.3.9-.3 1.5s.1 1 .3 1.5c.2.4.5.8.9 1s.8.4 1.3.4.9-.1 1.3-.4zm3.7 1.1v-7.1h1v2.9h4.2v-2.9h1v7.1h-1v-3.2H33v3.2h-1.1zm8.4-7.1h1v2.4H43c.8 0 1.4.2 1.8.6.4.4.6 1 .6 1.7s-.2 1.3-.7 1.7c-.4.4-1.1.6-1.9.6h-2.6v-7zm2.6 6.2c.5 0 .8-.1 1.1-.4.3-.3.4-.6.4-1s-.1-.8-.4-1c-.3-.2-.6-.4-1.1-.4h-1.6v2.8h1.6zm3.8.9v-7.1h1v7.1h-1zm9.7-10.3h6.1v1h-4.9v3.4H60c1.1 0 1.9.3 2.5.8.6.5.9 1.3.9 2.1 0 .9-.3 1.6-.8 2.2-.6.5-1.3.8-2.3.8h-3.8v-10.3zm3.6 9.4c.6 0 1.2-.2 1.5-.5.4-.4.6-.9.6-1.5s-.2-1.1-.6-1.5c-.4-.4-.9-.5-1.5-.5h-2.5v4H60zm9.6-6c.5.3.9.7 1.2 1.3.3.5.4 1.1.4 1.8v.4h-5.8c0 .7.3 1.3.7 1.9.4.5 1 .8 1.8.8.6 0 1.1-.1 1.5-.3.4-.2.7-.5 1-.9l.8.5c-.3.5-.8.9-1.3 1.2s-1.2.4-1.9.4-1.3-.2-1.8-.5-1-.8-1.3-1.3c-.3-.6-.5-1.2-.5-2s.1-1.4.4-2c.3-.6.7-1 1.2-1.3s1.1-.5 1.8-.5c.7.1 1.2.2 1.8.5zm.6 2.7c-.1-.7-.3-1.3-.7-1.7-.4-.4-.9-.6-1.6-.6-.7 0-1.2.2-1.6.6-.4.4-.7.9-.8 1.6h4.7zm7.8-2.6c.5.3 1 .8 1.3 1.3.3.6.5 1.2.5 2 0 .7-.1 1.4-.4 1.9-.3.6-.7 1-1.2 1.3-.5.3-1.1.5-1.8.5-.5 0-1-.1-1.4-.3-.4-.2-.8-.5-1.1-1v4.1h-1v-10.1h1v1c.3-.4.6-.7 1.1-.9.4-.2.9-.3 1.4-.3.5 0 1.1.1 1.6.5zm-.5 5.7c.4-.2.7-.6.9-1 .2-.4.3-.9.3-1.5s-.1-1-.3-1.5c-.2-.4-.5-.8-.9-1s-.8-.4-1.3-.4-.9.1-1.3.4-.7.6-.9 1-.3.9-.3 1.5c0 .5.1 1 .3 1.5s.5.8.9 1 .8.4 1.3.4 1-.1 1.3-.4zm8.5-5.8c.5.3.9.7 1.2 1.3.3.5.4 1.1.4 1.8v.4h-5.8c0 .7.3 1.3.7 1.9.4.5 1 .8 1.8.8.6 0 1.1-.1 1.5-.3.4-.2.7-.5 1-.9l.8.5c-.3.5-.8.9-1.3 1.2s-1.2.4-1.9.4-1.3-.2-1.8-.5-1-.8-1.3-1.3c-.3-.6-.5-1.2-.5-2s.1-1.4.4-2c.3-.6.7-1 1.2-1.3s1.1-.5 1.8-.5c.7.1 1.3.2 1.8.5zm.6 2.7c-.1-.7-.3-1.3-.7-1.7-.4-.4-.9-.6-1.6-.6-.7 0-1.2.2-1.6.6-.4.4-.7.9-.8 1.6h4.7zM88 161l2.7-3.7-2.4-3.4h1.1l2.1 2.9h1v-2.9h1v2.9h1l2.1-2.9h1.1l-2.4 3.4L98 161h-1.2l-2.3-3.2h-1v3.2h-1v-3.2h-1l-2.3 3.2H88zm17 0h-1.2l-2.5-3.2h-1.1v3.2h-1v-7.1h1v2.9h1.1l2.2-2.9h1.1l-2.6 3.4 3 3.7zm2.4-.3c-.5-.3-1-.8-1.3-1.4-.3-.6-.5-1.2-.5-2 0-.7.1-1.4.4-1.9.3-.6.7-1 1.2-1.3s1.1-.5 1.8-.5 1.3.2 1.8.5 1 .8 1.3 1.3c.3.6.5 1.2.5 2s-.1 1.4-.4 2c-.3.6-.7 1-1.2 1.3-.5.3-1.1.5-1.8.5-.6 0-1.2-.1-1.8-.5zm3.1-.8c.4-.2.7-.6.9-1 .2-.4.3-.9.3-1.5 0-.5-.1-1-.3-1.5-.2-.4-.5-.8-.9-1-.4-.2-.8-.4-1.3-.4s-.9.1-1.3.4-.7.6-.9 1c-.2.4-.3.9-.3 1.5s.1 1 .3 1.5c.2.4.5.8.9 1s.8.4 1.3.4.9-.1 1.3-.4zm9.3-2.2c.2.3.4.7.4 1.2 0 .6-.2 1.1-.7 1.5-.4.4-1 .5-1.8.5h-3.5v-7.1h3.2c.7 0 1.3.2 1.7.5.4.3.6.8.6 1.3 0 .4-.1.7-.3.9-.2.2-.4.4-.8.5.7.2 1 .4 1.2.7zm-4.5-.9h2.3c.7 0 1.1-.3 1.1-1 0-.3-.1-.5-.3-.7-.2-.2-.5-.2-.9-.2h-2.2v1.9zm3.4 3c.3-.2.4-.5.4-.8 0-.4-.1-.8-.4-1-.3-.2-.6-.4-1.1-.4h-2.3v2.5h2.3c.5 0 .9-.1 1.1-.3zm4.3.9c-.5-.3-1-.8-1.3-1.4-.3-.6-.5-1.2-.5-2 0-.7.1-1.4.4-1.9.3-.6.7-1 1.2-1.3s1.1-.5 1.8-.5 1.3.2 1.8.5 1 .8 1.3 1.3c.3.6.5 1.2.5 2s-.1 1.4-.4 2c-.3.6-.7 1-1.2 1.3-.5.3-1.1.5-1.8.5s-1.3-.1-1.8-.5zm3-.8c.4-.2.7-.6.9-1 .2-.4.3-.9.3-1.5 0-.5-.1-1-.3-1.5-.2-.4-.5-.8-.9-1-.4-.2-.8-.4-1.3-.4s-.9.1-1.3.4-.7.6-.9 1c-.2.4-.3.9-.3 1.5s.1 1 .3 1.5c.2.4.5.8.9 1s.8.4 1.3.4 1-.1 1.3-.4zm9.1-6h1v7.1h-1v-5.6l-4.2 5.6h-1v-7.1h1v5.7l4.2-5.7zm-3.8-1.5c-.4-.3-.6-.6-.6-1.1h1c0 .5.4.7 1.1.7.8 0 1.1-.2 1.1-.7h1c0 .4-.2.8-.6 1.1-.4.3-.9.4-1.6.4s-1-.1-1.4-.4z" fill="#007f81"/><path class="st3" d="M91.4 36.4C90.8 25.5 82 15.2 67 7.6c-14.9 7.9-23.6 18.2-24.2 28.9-.1 1.3 0 2.6.2 4 10.6 5.1 18.7 10.8 24.2 16.8 5.6-6.1 13.7-11.7 24.1-16.8.1-1.4.2-2.7.1-4.1z"/><path class="st3" d="M91.4 78C90.8 89 82 99.3 67 106.8c-14.9-7.9-23.6-18.2-24.2-28.9-.1-1.3 0-2.6.2-4 10.6-5.1 18.7-10.8 24.2-16.8 5.6 6.1 13.7 11.7 24.1 16.8.1 1.4.2 2.7.1 4.1z"/><path class="st3" d="M46.3 32.9c-11 .6-21.3 9.4-28.8 24.4C25.4 72.2 35.7 81 46.4 81.5c1.3.1 2.6 0 4-.2 5.1-10.6 10.8-18.7 16.8-24.2-6.1-5.6-11.7-13.7-16.8-24.1-1.4-.1-2.7-.2-4.1-.1z"/><path class="st3" d="M87.9 32.9c11 .6 21.3 9.4 28.8 24.4-7.9 14.9-18.2 23.7-28.9 24.2-1.3.1-2.6 0-4-.2C78.7 70.7 73 62.6 67 57.1c6.1-5.6 11.7-13.7 16.8-24.1 1.4-.1 2.7-.2 4.1-.1z"/><path d="M63.4 38.7c-.6-.4-1.1-.9-1.3-1.5-.3-.6-.4-1.2-.4-1.8 0-.7.2-1.4.6-2 .4-.6.9-1.2 1.4-1.7.6-.5 1.3-1.1 2.3-1.8l.8-.6c-.8-.9-1.5-1.8-2-2.5-.5-.8-.7-1.6-.7-2.6 0-.9.2-1.6.6-2.2.4-.6 1-1 1.6-1.3.7-.3 1.4-.4 2.1-.4 1.1 0 1.9.3 2.6.9.6.6 1 1.4 1 2.5s-.3 2-.9 2.8c-.6.8-1.4 1.7-2.5 2.5.7.7 1.2 1.3 1.6 1.8.4.5.7 1 1 1.6.3.6.4 1.2.4 1.9 0 1-.3 1.8-.8 2.6-.6.7-1.3 1.3-2.2 1.7s-1.8.6-2.8.6c-1 .1-1.8-.1-2.4-.5zm4.4-.8c.6-.3 1-.8 1.4-1.4.4-.6.5-1.3.5-2 0-.8-.2-1.5-.6-2.2-.4-.7-1-1.4-1.7-2.2-1 .7-1.7 1.3-2.3 1.8-.6.5-1 1-1.4 1.6-.4.6-.6 1.3-.6 1.9 0 .6.1 1.1.4 1.6s.6.8 1.1 1.1.9.4 1.4.4c.6-.1 1.2-.3 1.8-.6zM70 26.2c.5-.7.7-1.6.7-2.5 0-.9-.2-1.6-.6-2-.4-.5-.9-.7-1.5-.7-.4 0-.8.1-1.2.3-.4.2-.7.5-1 1-.3.4-.4 1-.4 1.7 0 .8.2 1.5.5 2.2.4.7.9 1.4 1.6 2.2.8-.7 1.4-1.5 1.9-2.2zM63.4 90c-.6-.4-1.1-.9-1.3-1.5-.3-.6-.4-1.2-.4-1.8 0-.7.2-1.4.6-2 .4-.6.9-1.2 1.4-1.7.6-.5 1.3-1.1 2.3-1.8l.8-.6c-.8-.9-1.5-1.8-2-2.5-.5-.8-.7-1.6-.7-2.6 0-.9.2-1.6.6-2.2.4-.6 1-1 1.6-1.3.7-.3 1.4-.4 2.1-.4 1.1 0 1.9.3 2.6.9.6.6 1 1.4 1 2.5s-.3 2-.9 2.8c-.6.8-1.4 1.7-2.5 2.5.7.7 1.2 1.3 1.6 1.8.4.5.7 1 1 1.6s.4 1.2.4 1.9c0 1-.3 1.8-.8 2.6-.6.7-1.3 1.3-2.2 1.7s-1.8.6-2.8.6c-1 .1-1.8-.1-2.4-.5zm4.4-.8c.6-.3 1-.8 1.4-1.4.4-.6.5-1.3.5-2 0-.8-.2-1.5-.6-2.2-.4-.7-1-1.4-1.7-2.2-1 .7-1.7 1.3-2.3 1.8s-1 1-1.4 1.6c-.4.6-.6 1.3-.6 1.9 0 .6.1 1.1.4 1.6s.6.8 1.1 1.1.9.4 1.4.4c.6-.1 1.2-.3 1.8-.6zM70 77.5c.5-.7.7-1.6.7-2.5 0-.9-.2-1.6-.6-2-.4-.5-.9-.7-1.5-.7-.4 0-.8.1-1.2.3-.4.2-.7.5-1 1-.3.4-.4 1-.4 1.7 0 .8.2 1.5.5 2.2.4.7.9 1.4 1.6 2.2.8-.8 1.4-1.5 1.9-2.2zM33.4 65.8c.7-.3 1.7-.4 3.1-.4.5-1.1 1-2.6 1.5-4.5s1.1-4.2 1.7-7.1c.1-.4.3-1.3.6-2.8s.6-2.5.9-3.2c-1.4 0-2.5.1-3.3.2-.8.1-1.7.2-2.6.4.1-.7.6-1.2 1.5-1.5.8-.3 2.1-.5 3.9-.5 1.1 0 2.4.1 3.6.2 1.3.1 2.4.2 3.2.4-.4.4-.8.6-1.2.7-.4.1-.9.2-1.4.2H42v.8c-1.1 6-1.9 10.1-2.4 12.2-.3 1.2-.6 2.2-1 2.9-.4.7-.8 1.3-1.2 1.6.8.1 1.7.1 2.5.2 1.3.2 2.3.2 3.2.3-.8.8-1.7 1.1-3 1.1h-1.3c-1.6 0-2.9 0-3.8.1-.9 0-1.9.2-2.8.4.1-.9.5-1.5 1.2-1.7zm54.4 1.1c-.5-.3-.7-.9-.7-1.6 0-.1 0-.1.1-.1s.3 0 .6.1c.4.1 1 .1 1.8.1 1.9 0 3.7-.3 5.3-.9 1.6-.6 2.9-1.4 3.8-2.3.9-1 1.4-2 1.4-3 0-1.3-.6-2.1-1.9-2.6-1.2-.4-2.8-.6-4.7-.6h-2c-.3.9-.6 2.2-1.1 4-.4 1.4-.8 2.8-1.2 4.4-.4 0-.8-.1-1.1-.4-.3-.2-.4-.5-.4-.9 0-.2.1-.5.2-.8.1-.3.2-.6.2-.7.5-1.8 1.4-4.2 2.5-7.3 1.1-3 2.1-5.5 3.1-7.4-1 .2-2 .6-3 1.2-.3.2-.5.3-.6.3-.1 0-.3-.1-.5-.3-.2-.2-.3-.3-.3-.4 1.2-.5 2.2-.8 3.1-1.1.9-.2 1.9-.4 3.2-.4 1.6 0 3 .3 4.2.9 1.2.6 1.8 1.7 1.8 3.3 0 1.6-.6 2.7-1.7 3.5-1.2.8-2.6 1.3-4.3 1.6 4 .2 6 1.7 6 4.2 0 1.6-.6 2.9-1.9 4.1s-2.8 2-4.6 2.7c-1.8.6-3.4.9-4.8.9-1.3 0-2-.1-2.5-.5zm9.7-12.8c1.6-.8 2.4-2.1 2.4-3.9 0-2.3-1.5-3.4-4.4-3.4H95c-1 2-2.1 4.9-3.2 8.6 2.2-.1 4.1-.5 5.7-1.3zm-35.7.1c1.4 1.5 3.3 2.4 5.2 2.7-.3-1.9-1.2-3.8-2.7-5.2-1.4-1.4-3.2-2.2-4.9-2.4.2 1.8 1 3.5 2.4 4.9zm7.7 7.8c1.4 1.5 3.3 2.4 5.2 2.7-.3-1.9-1.2-3.8-2.7-5.2-1.4-1.4-3.2-2.2-4.9-2.4.2 1.7 1.1 3.5 2.4 4.9zm-5.3.3c1.5-1.4 2.4-3.3 2.7-5.2-1.9.3-3.8 1.2-5.2 2.7-1.4 1.4-2.2 3.2-2.4 4.9 1.8-.2 3.6-1.1 4.9-2.4zm7.8-7.8c1.5-1.4 2.4-3.3 2.7-5.2-1.9.3-3.8 1.2-5.2 2.7-1.4 1.4-2.2 3.2-2.4 4.9 1.7-.2 3.5-1 4.9-2.4z" fill="#fff"/></svg>