<?xml version="1.0" encoding="utf-8"?>
<!-- Generator: Adobe Illustrator 23.1.0, SVG Export Plug-In . SVG Version: 6.00 Build 0)  -->
<svg version="1.1" id="Слой_1" xmlns="http://www.w3.org/2000/svg" xmlns:xlink="http://www.w3.org/1999/xlink" x="0px" y="0px"
	 viewBox="0 0 828.3 473.7" style="enable-background:new 0 0 828.3 473.7;" xml:space="preserve">
<style type="text/css">
	.st0{fill:#FFFFFF;}
</style>
<g>
	<path class="st0" d="M200.6,279.2c-0.6-0.1-1.2-0.1-1.8-0.2c-8.8-0.8-16.7-3.9-23.5-9.4c-6.6-5.3-11.3-12-14.1-20.1
		c-1-3-1.7-6.1-2-9.3c-0.3-2.9-0.4-5.9-0.1-8.8c0.8-8.2,3.7-15.6,8.7-22.2c4.9-6.5,11.2-11.2,18.7-14.2c3.2-1.3,6.5-2.1,10-2.6
		c3.1-0.4,6.1-0.6,9.2-0.3c9,0.7,17.1,3.8,24.1,9.5c6.6,5.3,11.3,12,14.1,20.1c1,3,1.7,6.1,2,9.3c0.1,0.9,0.2,1.9,0.3,2.8
		c0,1.2,0,2.5,0,3.7c-0.1,0.6-0.1,1.2-0.2,1.8c-0.2,3.1-0.8,6.2-1.8,9.2c-2.7,8.5-7.5,15.6-14.5,21.2c-6.9,5.5-14.7,8.6-23.5,9.4
		c-0.6,0.1-1.2,0.1-1.8,0.2C203.2,279.2,201.9,279.2,200.6,279.2z M241.9,235.6c0-21.7-17.7-39.3-39.4-39.3
		c-21.6,0-39.2,17.6-39.2,39.3c0,21.7,17.7,39.4,39.4,39.3C224.3,274.8,241.9,257.2,241.9,235.6z"/>
	<path class="st0" d="M202.7,248.4c-2.4,0-4.7-0.1-7-0.1c-1.4,0-2.9-0.1-4.3-0.2c-1.4-0.1-2.9-0.2-4.2-0.5c-2-0.5-3.3-1.8-3.8-3.8
		c-0.2-1-0.3-2-0.5-3c-0.3-2.7-0.3-5.5-0.3-8.3c0-1.3,0.1-2.7,0.2-4c0.1-1.2,0.3-2.4,0.5-3.5c0.4-2,2.1-3.6,4.2-3.9
		c1.1-0.2,2.2-0.3,3.3-0.3c2.1-0.1,4.2-0.2,6.3-0.3c2.6-0.1,5.2-0.1,7.8-0.1c1.4,0,2.8,0,4.3,0.1c1.3,0,2.6,0.1,3.9,0.2
		c0.8,0,1.6,0.1,2.4,0.2c1,0.1,2.1,0.2,3.1,0.5c1.7,0.6,2.8,1.9,3.2,3.7c0.2,1,0.3,1.9,0.5,2.9c0.3,2.7,0.3,5.5,0.3,8.2
		c0,1.1-0.1,2.2-0.2,3.3c-0.1,1.1-0.2,2.1-0.4,3.2c-0.2,1.1-0.4,2.2-1.2,3.1c-0.8,1-1.9,1.7-3.2,1.8c-1.1,0.2-2.3,0.3-3.4,0.3
		c-1.9,0.1-3.9,0.2-5.8,0.3C206.4,248.3,204.5,248.3,202.7,248.4z M198.6,228.4c0,4,0,8,0,12c3.5-2,6.9-4,10.4-6
		C205.5,232.4,202,230.4,198.6,228.4z"/>
</g>
</svg>
