<?xml version="1.0" encoding="utf-8"?>
<!-- Generator: Adobe Illustrator 23.1.0, SVG Export Plug-In . SVG Version: 6.00 Build 0)  -->
<svg version="1.1" id="Слой_1" xmlns="http://www.w3.org/2000/svg" xmlns:xlink="http://www.w3.org/1999/xlink" x="0px" y="0px"
	 viewBox="0 0 828.3 473.7" style="enable-background:new 0 0 828.3 473.7;" xml:space="preserve">
<style type="text/css">
	.st0{fill:#FFFFFF;}
</style>
<g>
	<g>
		<path class="st0" d="M654.5,228.2c-0.2,0.1-0.5,0.4-0.7,0.4c-2.8,0.9-5.6,1.8-8.4,2.7c-1.5,0.5-3,0.9-4.5,1.4
			c-2.8,0.9-5.6,1.8-8.4,2.7c-0.5,0.2-0.9,0.2-1.4,0c-3.6-1.2-7.2-2.3-10.9-3.5c-0.4-0.1-0.8-0.2-1.2-0.4c-0.3-0.1-0.5,0-0.7,0.2
			c-0.8,0.9-1.2,2-1.4,3.1c-0.2,0.7-0.2,1.4-0.3,2.1c0,0.1,0.1,0.3,0.2,0.4c1.3,0.8,1.4,2.9,0.2,3.9c-0.2,0.2-0.3,0.4-0.2,0.6
			c0.1,0.7,0.2,1.5,0.3,2.2c0.1,1,0.3,2,0.4,3c0.1,0.8,0.2,1.6,0.3,2.4c0,0.2,0.1,0.4,0,0.7c0,0.3-0.2,0.5-0.6,0.5
			c-1.3,0-2.5,0-3.8,0c-0.4,0-0.6-0.3-0.6-0.7c0.1-0.8,0.2-1.5,0.3-2.3c0.1-1,0.3-2.1,0.4-3.1c0.1-1,0.3-1.9,0.4-2.9
			c0-0.1,0-0.4-0.2-0.4c-1.2-0.8-1.3-3,0-3.9c0.2-0.1,0.3-0.4,0.4-0.6c0.1-1.6,0.4-3.2,1.1-4.7c0.2-0.5,0.5-0.9,0.8-1.4
			c-0.5-0.2-1-0.3-1.4-0.5c-1.6-0.5-3.3-1-4.9-1.5c-0.3-0.1-0.6-0.2-0.7-0.6c0-0.4,0.3-0.6,0.6-0.7c2.3-0.7,4.6-1.4,6.8-2.1
			c4.8-1.5,9.6-3,14.4-4.6c0.8-0.3,1.5-0.1,2.2,0.2c3.6,1.1,7.3,2.3,10.9,3.4c2.2,0.7,4.3,1.4,6.5,2c1.1,0.3,2.1,0.7,3.2,1
			c0.3,0.1,0.6,0.3,0.9,0.4C654.5,227.8,654.5,228,654.5,228.2z"/>
		<path class="st0" d="M619.5,234.4c1.5,0.5,2.9,0.9,4.4,1.4c1.9,0.6,3.8,1.1,5.6,1.8c1.7,0.6,3.2,0.5,4.8-0.1c3.1-1,6.2-2,9.3-3
			c0.1,0,0.2-0.1,0.4-0.1c0,0.2,0.1,0.4,0.1,0.5c0.1,1.8,0.2,3.6,0.3,5.4c0.1,1.1-0.5,1.9-1.3,2.5c-1.5,1.1-3.2,1.6-5,2.1
			c-2.7,0.7-5.5,0.8-8.3,0.6c-2.9-0.2-5.8-0.7-8.5-2.1c-0.9-0.5-1.8-1.1-2.1-2.3c-0.1-0.4-0.1-0.8-0.1-1.1c0.1-1.5,0.2-3,0.3-4.5
			C619.4,235.2,619.5,234.8,619.5,234.4z"/>
	</g>
	<path class="st0" d="M629.8,279.2c-0.6-0.1-1.2-0.1-1.8-0.2c-8.8-0.8-16.7-3.9-23.5-9.4c-6.6-5.3-11.3-12-14.1-20.1
		c-1-3-1.7-6.1-2-9.3c-0.3-2.9-0.4-5.9-0.1-8.8c0.8-8.2,3.7-15.6,8.7-22.2c4.9-6.5,11.2-11.2,18.7-14.2c3.2-1.3,6.5-2.1,10-2.6
		c3.1-0.4,6.1-0.6,9.2-0.3c9,0.7,17.1,3.8,24.1,9.5c6.6,5.3,11.3,12,14.1,20.1c1,3,1.7,6.1,2,9.3c0.1,0.9,0.2,1.9,0.3,2.8
		c0,1.2,0,2.5,0,3.7c-0.1,0.6-0.1,1.2-0.2,1.8c-0.2,3.1-0.8,6.2-1.8,9.2c-2.7,8.5-7.5,15.6-14.5,21.2c-6.9,5.5-14.7,8.6-23.5,9.4
		c-0.6,0.1-1.2,0.1-1.8,0.2C632.4,279.2,631.1,279.2,629.8,279.2z M671.1,235.6c0-21.7-17.7-39.3-39.4-39.3
		c-21.6,0-39.2,17.6-39.2,39.3c0,21.7,17.7,39.4,39.4,39.3C653.5,274.8,671.1,257.2,671.1,235.6z"/>
</g>
</svg>
