<?xml version="1.0" encoding="utf-8"?>
<!-- Generator: Adobe Illustrator 23.1.0, SVG Export Plug-In . SVG Version: 6.00 Build 0)  -->
<svg version="1.1" id="Слой_1" xmlns="http://www.w3.org/2000/svg" xmlns:xlink="http://www.w3.org/1999/xlink" x="0px" y="0px"
	 viewBox="0 0 828.3 473.7" style="enable-background:new 0 0 828.3 473.7;" xml:space="preserve">
<style type="text/css">
	.st0{fill:#FFFFFF;}
</style>
<g>
	<path class="st0" d="M418.2,289.6c-0.6-0.1-1.2-0.1-1.8-0.2c-8.8-0.8-16.7-3.9-23.5-9.4c-6.6-5.3-11.3-12-14.1-20.1
		c-1-3-1.7-6.1-2-9.3c-0.3-2.9-0.4-5.9-0.1-8.8c0.8-8.2,3.7-15.6,8.7-22.2c4.9-6.5,11.2-11.2,18.7-14.2c3.2-1.3,6.5-2.1,10-2.6
		c3.1-0.4,6.1-0.6,9.2-0.3c9,0.7,17.1,3.8,24.1,9.5c6.6,5.3,11.3,12,14.1,20.1c1,3,1.7,6.1,2,9.3c0.1,0.9,0.2,1.9,0.3,2.8
		c0,1.2,0,2.5,0,3.7c-0.1,0.6-0.1,1.2-0.2,1.8c-0.2,3.1-0.8,6.2-1.8,9.2c-2.7,8.5-7.5,15.6-14.5,21.2c-6.9,5.5-14.7,8.6-23.5,9.4
		c-0.6,0.1-1.2,0.1-1.8,0.2C420.8,289.6,419.5,289.6,418.2,289.6z M459.5,246c0-21.7-17.7-39.3-39.4-39.3
		c-21.6,0-39.2,17.6-39.2,39.3c0,21.7,17.7,39.4,39.4,39.3C441.9,285.2,459.5,267.6,459.5,246z"/>
	<path class="st0" d="M434,237.5c0,0.6-0.3,1-0.6,1.4c-3,3-6,6-9.1,9.1c-2.6,2.6-5.3,5.3-7.9,7.9c-0.3,0.3-0.8,0.6-1.2,0.7
		c-3.3,0.9-6.5,1.8-9.8,2.6c-1.1,0.3-1.8-0.4-1.5-1.5c0.9-3.3,1.7-6.6,2.7-9.9c0.1-0.4,0.4-0.8,0.7-1.1c5.7-5.7,11.3-11.4,17-17
		c0.9-0.9,1.8-0.9,2.7,0c2.2,2.2,4.3,4.3,6.5,6.5C433.8,236.6,434,237,434,237.5z M425.6,231.5c-5.1,5.1-10.2,10.2-15.2,15.2
		c2,2,4,4,6,6c5-5,10.1-10.1,15.2-15.2C429.6,235.5,427.5,233.5,425.6,231.5z M409.2,247.7c-0.2,0.3-0.4,0.5-0.5,0.8
		c-0.3,1.1-0.6,2.2-0.9,3.4c0,0.1,0,0.4,0.1,0.5c0.9,1,1.9,1.9,2.9,2.9c0.1,0.1,0.3,0.2,0.5,0.1c1.1-0.3,2.1-0.5,3.2-0.9
		c0.4-0.1,0.7-0.4,1-0.6C413.3,251.8,411.2,249.8,409.2,247.7z M409.3,255.9c-0.7-0.7-1.4-1.4-2.1-2.1c-0.3,0.9-0.5,1.9-0.8,2.9
		C407.4,256.4,408.3,256.2,409.3,255.9z"/>
	<path class="st0" d="M427.2,256c2.5,0,5.1,0,7.6,0c0.6,0,0.6,0,0.6,0.6c0,0.4,0,0.7,0,1.1c0,0.4-0.1,0.6-0.6,0.6
		c-2.2,0-4.5,0-6.7,0c-2.8,0-5.7,0-8.5,0c-0.6,0-0.6,0-0.6-0.6c0-0.4,0-0.8,0-1.2c0-0.4,0.1-0.5,0.5-0.5
		C422,256,424.6,256,427.2,256z"/>
	<path class="st0" d="M430.1,253.6c-1.6,0-3.1,0-4.7,0c-0.3,0-0.5-0.1-0.5-0.4c0-0.5,0-1,0-1.5c0-0.3,0.1-0.4,0.4-0.4
		c3.2,0,6.4,0,9.6,0c0.3,0,0.4,0.1,0.4,0.4c0,0.5,0,1,0,1.5c0,0.4-0.1,0.5-0.5,0.5C433.3,253.6,431.7,253.6,430.1,253.6z"/>
</g>
</svg>
