<?xml version="1.0" encoding="utf-8"?>
<!-- Generator: Adobe Illustrator 23.1.0, SVG Export Plug-In . SVG Version: 6.00 Build 0)  -->
<svg version="1.1" id="Слой_1" xmlns="http://www.w3.org/2000/svg" xmlns:xlink="http://www.w3.org/1999/xlink" x="0px" y="0px"
	 viewBox="0 0 140.1 166.7" style="enable-background:new 0 0 140.1 166.7;" xml:space="preserve">
<style type="text/css">
	.st0{fill:#009693;}
	.st1{fill:#DB407B;}
	.st2{fill:#007F81;}
	.st3{fill:none;stroke:#FFFFFF;stroke-miterlimit:10;}
	.st4{fill:#FFFFFF;}
</style>
<circle class="st0" cx="67.1" cy="57.2" r="52"/>
<g>
	<path class="st1" d="M15.5,129.9v-8.2h0.9v7.4h3.2v-7.4h0.9v7.4h3.2v-7.4h0.9v8.2H15.5z"/>
	<path class="st1" d="M31,129.9h-0.9l-2-2.5h-0.9v2.5h-0.8v-5.6h0.8v2.3h0.9l1.8-2.3h0.9l-2,2.7L31,129.9z"/>
	<path class="st1" d="M33,129.7c-0.4-0.3-0.8-0.6-1-1.1c-0.2-0.5-0.4-1-0.4-1.6s0.1-1.1,0.4-1.5c0.2-0.5,0.6-0.8,1-1.1
		s0.9-0.4,1.4-0.4c0.5,0,1,0.1,1.4,0.4c0.4,0.3,0.8,0.6,1,1.1c0.2,0.5,0.4,1,0.4,1.5c0,0.6-0.1,1.1-0.4,1.5c-0.2,0.5-0.6,0.8-1,1.1
		c-0.4,0.3-0.9,0.4-1.4,0.4C33.9,130.1,33.4,129.9,33,129.7z M35.4,129c0.3-0.2,0.5-0.5,0.7-0.8c0.2-0.3,0.3-0.7,0.3-1.2
		c0-0.4-0.1-0.8-0.3-1.2s-0.4-0.6-0.7-0.8c-0.3-0.2-0.6-0.3-1-0.3c-0.4,0-0.7,0.1-1,0.3c-0.3,0.2-0.5,0.5-0.7,0.8
		c-0.2,0.3-0.3,0.7-0.3,1.2c0,0.4,0.1,0.8,0.3,1.2c0.2,0.3,0.4,0.6,0.7,0.8c0.3,0.2,0.6,0.3,1,0.3C34.8,129.3,35.1,129.2,35.4,129z"
		/>
	<path class="st1" d="M37.9,129.1h0.4c0.3,0,0.6-0.3,0.8-0.9s0.3-1.5,0.3-2.7v-1.3H43v5.6h-0.8V125h-2.1v0.8c0,1.2-0.1,2.2-0.4,3
		c-0.3,0.7-0.8,1.1-1.5,1.1h-0.3V129.1z"/>
	<path class="st1" d="M49.7,124.3v5.6h-0.8V129c-0.2,0.3-0.5,0.6-0.9,0.8s-0.7,0.3-1.1,0.3c-0.5,0-1-0.1-1.4-0.4
		c-0.4-0.3-0.8-0.6-1-1.1c-0.2-0.5-0.4-1-0.4-1.6c0-0.6,0.1-1.1,0.4-1.5c0.2-0.5,0.6-0.8,1-1.1s0.9-0.4,1.4-0.4
		c0.4,0,0.8,0.1,1.1,0.3c0.3,0.2,0.6,0.4,0.9,0.8v-0.8H49.7z M48,129c0.3-0.2,0.5-0.5,0.7-0.8c0.2-0.3,0.3-0.7,0.3-1.2
		c0-0.4-0.1-0.8-0.3-1.2s-0.4-0.6-0.7-0.8c-0.3-0.2-0.6-0.3-1-0.3c-0.4,0-0.7,0.1-1,0.3c-0.3,0.2-0.5,0.5-0.7,0.8
		c-0.2,0.3-0.3,0.7-0.3,1.2c0,0.4,0.1,0.8,0.3,1.2c0.2,0.3,0.4,0.6,0.7,0.8c0.3,0.2,0.6,0.3,1,0.3C47.3,129.3,47.7,129.2,48,129z"/>
	<path class="st1" d="M54,129.9v-5.6h4.7v5.6h-0.8V125h-3.1v4.9H54z"/>
	<path class="st1" d="M64.6,124.5c0.4,0.3,0.8,0.6,1,1.1c0.2,0.5,0.4,1,0.4,1.6c0,0.6-0.1,1.1-0.4,1.5s-0.6,0.8-1,1.1
		s-0.9,0.4-1.4,0.4c-0.4,0-0.8-0.1-1.1-0.3s-0.6-0.4-0.9-0.8v3.2h-0.8v-8h0.8v0.8c0.2-0.3,0.5-0.6,0.9-0.8s0.7-0.3,1.1-0.3
		C63.7,124.1,64.1,124.2,64.6,124.5z M64.2,129c0.3-0.2,0.5-0.5,0.7-0.8s0.3-0.7,0.3-1.2c0-0.4-0.1-0.8-0.3-1.2s-0.4-0.6-0.7-0.8
		c-0.3-0.2-0.6-0.3-1-0.3c-0.4,0-0.7,0.1-1,0.3c-0.3,0.2-0.5,0.5-0.7,0.8s-0.3,0.7-0.3,1.2c0,0.4,0.1,0.8,0.3,1.2
		c0.2,0.3,0.4,0.6,0.7,0.8c0.3,0.2,0.6,0.3,1,0.3C63.5,129.3,63.9,129.2,64.2,129z"/>
	<path class="st1" d="M72.3,124.3v5.6h-0.8V129c-0.2,0.3-0.5,0.6-0.9,0.8s-0.7,0.3-1.1,0.3c-0.5,0-1-0.1-1.4-0.4
		c-0.4-0.3-0.8-0.6-1-1.1c-0.2-0.5-0.4-1-0.4-1.6c0-0.6,0.1-1.1,0.4-1.5c0.2-0.5,0.6-0.8,1-1.1s0.9-0.4,1.4-0.4
		c0.4,0,0.8,0.1,1.1,0.3c0.3,0.2,0.6,0.4,0.9,0.8v-0.8H72.3z M70.5,129c0.3-0.2,0.5-0.5,0.7-0.8c0.2-0.3,0.3-0.7,0.3-1.2
		c0-0.4-0.1-0.8-0.3-1.2s-0.4-0.6-0.7-0.8c-0.3-0.2-0.6-0.3-1-0.3c-0.4,0-0.7,0.1-1,0.3c-0.3,0.2-0.5,0.5-0.7,0.8
		c-0.2,0.3-0.3,0.7-0.3,1.2c0,0.4,0.1,0.8,0.3,1.2c0.2,0.3,0.4,0.6,0.7,0.8c0.3,0.2,0.6,0.3,1,0.3C69.9,129.3,70.2,129.2,70.5,129z"
		/>
	<path class="st1" d="M78.4,129.9h-0.9l-2-2.5h-0.9v2.5h-0.8v-5.6h0.8v2.3h0.9l1.8-2.3h0.9l-2,2.7L78.4,129.9z"/>
	<path class="st1" d="M78.8,124.3H84v0.7h-2.3v3.3c0,0.3,0.1,0.5,0.3,0.7c0.2,0.2,0.4,0.3,0.7,0.3h0.7v0.7h-0.7
		c-0.6,0-1-0.2-1.3-0.5c-0.3-0.3-0.5-0.7-0.5-1.3V125h-2.1V124.3z"/>
	<path class="st1" d="M89.3,124.3h0.8v5.6h-0.8v-4.5l-3.3,4.5h-0.8v-5.6H86v4.5L89.3,124.3z"/>
	<path class="st1" d="M96.2,124.3v5.6h-0.8v-2.4c-0.2,0.2-0.4,0.3-0.7,0.4c-0.3,0.1-0.6,0.1-0.9,0.1c-0.6,0-1.1-0.2-1.5-0.5
		c-0.4-0.3-0.6-0.9-0.6-1.5v-1.8h0.8v1.5c0,0.4,0,0.7,0.1,1s0.2,0.4,0.5,0.5s0.5,0.1,0.9,0.1c0.4,0,0.7-0.1,1-0.2
		c0.3-0.1,0.4-0.3,0.4-0.5v-2.4H96.2z"/>
	<path class="st1" d="M101.5,124.4c0.4,0.2,0.7,0.6,1,1s0.3,0.9,0.3,1.4c0,0.2,0,0.3,0,0.3h-4.6c0,0.6,0.2,1.1,0.6,1.5
		s0.8,0.6,1.4,0.6c0.5,0,0.9-0.1,1.2-0.3c0.3-0.2,0.6-0.4,0.8-0.8l0.6,0.4c-0.3,0.4-0.6,0.7-1,1c-0.4,0.2-0.9,0.4-1.5,0.4
		c-0.5,0-1-0.1-1.5-0.4s-0.8-0.6-1-1.1c-0.2-0.5-0.4-1-0.4-1.5c0-0.6,0.1-1.1,0.4-1.5c0.2-0.5,0.6-0.8,1-1.1s0.9-0.4,1.4-0.4
		C100.7,124.1,101.1,124.2,101.5,124.4z M102,126.6c-0.1-0.6-0.3-1-0.6-1.3c-0.3-0.3-0.7-0.4-1.3-0.4c-0.5,0-0.9,0.2-1.3,0.5
		c-0.3,0.3-0.5,0.8-0.6,1.3H102z"/>
	<path class="st1" d="M105,129.7c-0.4-0.3-0.8-0.6-1-1.1s-0.4-1-0.4-1.5c0-0.6,0.1-1.1,0.4-1.5c0.2-0.5,0.6-0.8,1-1.1
		c0.4-0.3,0.9-0.4,1.4-0.4c0.5,0,0.9,0.1,1.2,0.3c0.3,0.2,0.6,0.5,0.9,0.8l-0.6,0.5c-0.4-0.6-0.9-0.9-1.5-0.9c-0.4,0-0.7,0.1-1,0.3
		c-0.3,0.2-0.5,0.5-0.7,0.8s-0.3,0.7-0.3,1.2c0,0.4,0.1,0.8,0.3,1.2c0.2,0.3,0.4,0.6,0.7,0.8c0.3,0.2,0.6,0.3,1,0.3
		c0.4,0,0.7-0.1,0.9-0.2s0.5-0.3,0.7-0.6l0.6,0.4c-0.3,0.3-0.6,0.6-1,0.8c-0.4,0.2-0.8,0.3-1.3,0.3
		C105.9,130.1,105.5,129.9,105,129.7z"/>
	<path class="st1" d="M114.4,129.9h-0.9l-2-2.5h-0.9v2.5h-0.8v-5.6h0.8v2.3h0.9l1.8-2.3h0.9l-2,2.7L114.4,129.9z"/>
	<path class="st1" d="M116.3,129.7c-0.4-0.3-0.8-0.6-1-1.1c-0.2-0.5-0.4-1-0.4-1.6s0.1-1.1,0.4-1.5c0.2-0.5,0.6-0.8,1-1.1
		s0.9-0.4,1.4-0.4s1,0.1,1.4,0.4s0.8,0.6,1,1.1c0.2,0.5,0.4,1,0.4,1.5c0,0.6-0.1,1.1-0.4,1.5c-0.2,0.5-0.6,0.8-1,1.1
		s-0.9,0.4-1.4,0.4S116.8,129.9,116.3,129.7z M118.8,129c0.3-0.2,0.5-0.5,0.7-0.8c0.2-0.3,0.3-0.7,0.3-1.2c0-0.4-0.1-0.8-0.3-1.2
		c-0.2-0.3-0.4-0.6-0.7-0.8c-0.3-0.2-0.6-0.3-1-0.3c-0.4,0-0.7,0.1-1,0.3c-0.3,0.2-0.5,0.5-0.7,0.8c-0.2,0.3-0.3,0.7-0.3,1.2
		c0,0.4,0.1,0.8,0.3,1.2c0.2,0.3,0.4,0.6,0.7,0.8c0.3,0.2,0.6,0.3,1,0.3C118.1,129.3,118.5,129.2,118.8,129z"/>
	<path class="st1" d="M125.9,124.3h0.8v5.6h-0.8v-4.5l-3.3,4.5h-0.8v-5.6h0.8v4.5L125.9,124.3z M123,123.1c-0.3-0.2-0.5-0.5-0.5-0.8
		h0.8c0,0.4,0.3,0.6,0.9,0.6c0.6,0,0.9-0.2,0.9-0.6h0.8c0,0.4-0.2,0.6-0.5,0.8c-0.3,0.2-0.7,0.3-1.2,0.3
		C123.7,123.4,123.3,123.3,123,123.1z"/>
	<path class="st1" d="M37.1,139.9v-5.6h0.8v2.3h3.3v-2.3h0.8v5.6h-0.8v-2.5h-3.3v2.5H37.1z"/>
	<path class="st1" d="M47.5,134.3h0.8l-3,8h-0.8l0.9-2.3l-2.3-5.7h0.9l1.9,4.7L47.5,134.3z"/>
	<path class="st1" d="M54.2,134.3H55v5.6h-0.8v-4.4l-1.9,3.7h-0.5l-1.8-3.6v4.3h-0.8v-5.6h0.9l2,4L54.2,134.3z"/>
	<path class="st1" d="M60.4,134.4c0.4,0.2,0.7,0.6,1,1s0.3,0.9,0.3,1.4c0,0.2,0,0.3,0,0.3h-4.6c0,0.6,0.2,1.1,0.6,1.5
		c0.3,0.4,0.8,0.6,1.4,0.6c0.5,0,0.9-0.1,1.2-0.3c0.3-0.2,0.6-0.4,0.8-0.8l0.6,0.4c-0.3,0.4-0.6,0.7-1,1c-0.4,0.2-0.9,0.4-1.5,0.4
		c-0.5,0-1-0.1-1.5-0.4c-0.4-0.3-0.8-0.6-1-1.1c-0.2-0.5-0.4-1-0.4-1.5c0-0.6,0.1-1.1,0.4-1.5c0.2-0.5,0.6-0.8,1-1.1
		s0.9-0.4,1.4-0.4C59.6,134.1,60,134.2,60.4,134.4z M60.9,136.6c-0.1-0.6-0.3-1-0.6-1.3s-0.7-0.4-1.3-0.4c-0.5,0-0.9,0.2-1.3,0.5
		c-0.3,0.3-0.5,0.8-0.6,1.3H60.9z"/>
	<path class="st1" d="M67.2,134.5c0.4,0.3,0.8,0.6,1,1.1c0.2,0.5,0.4,1,0.4,1.6c0,0.6-0.1,1.1-0.4,1.5s-0.6,0.8-1,1.1
		s-0.9,0.4-1.4,0.4c-0.4,0-0.8-0.1-1.1-0.3s-0.6-0.4-0.9-0.8v3.2H63v-8h0.8v0.8c0.2-0.3,0.5-0.6,0.9-0.8s0.7-0.3,1.1-0.3
		C66.3,134.1,66.7,134.2,67.2,134.5z M66.8,139c0.3-0.2,0.5-0.5,0.7-0.8s0.3-0.7,0.3-1.2c0-0.4-0.1-0.8-0.3-1.2s-0.4-0.6-0.7-0.8
		c-0.3-0.2-0.6-0.3-1-0.3c-0.4,0-0.7,0.1-1,0.3c-0.3,0.2-0.5,0.5-0.7,0.8s-0.3,0.7-0.3,1.2c0,0.4,0.1,0.8,0.3,1.2
		c0.2,0.3,0.4,0.6,0.7,0.8c0.3,0.2,0.6,0.3,1,0.3C66.1,139.3,66.5,139.2,66.8,139z"/>
	<path class="st1" d="M70.7,139.7c-0.4-0.3-0.8-0.6-1-1.1c-0.2-0.5-0.4-1-0.4-1.6s0.1-1.1,0.4-1.5c0.2-0.5,0.6-0.8,1-1.1
		s0.9-0.4,1.4-0.4s1,0.1,1.4,0.4s0.8,0.6,1,1.1c0.2,0.5,0.4,1,0.4,1.5c0,0.6-0.1,1.1-0.4,1.5c-0.2,0.5-0.6,0.8-1,1.1
		s-0.9,0.4-1.4,0.4S71.1,139.9,70.7,139.7z M73.1,139c0.3-0.2,0.5-0.5,0.7-0.8c0.2-0.3,0.3-0.7,0.3-1.2c0-0.4-0.1-0.8-0.3-1.2
		s-0.4-0.6-0.7-0.8c-0.3-0.2-0.6-0.3-1-0.3c-0.4,0-0.7,0.1-1,0.3c-0.3,0.2-0.5,0.5-0.7,0.8c-0.2,0.3-0.3,0.7-0.3,1.2
		c0,0.4,0.1,0.8,0.3,1.2c0.2,0.3,0.4,0.6,0.7,0.8c0.3,0.2,0.6,0.3,1,0.3C72.5,139.3,72.8,139.2,73.1,139z"/>
	<path class="st1" d="M75.6,139.1H76c0.3,0,0.6-0.3,0.8-0.9c0.2-0.6,0.3-1.5,0.3-2.7v-1.3h3.7v5.6h-0.8V135h-2.1v0.8
		c0,1.2-0.1,2.2-0.4,3c-0.3,0.7-0.8,1.1-1.5,1.1h-0.3V139.1z"/>
	<path class="st1" d="M83.2,139.7c-0.4-0.3-0.8-0.6-1-1.1c-0.2-0.5-0.4-1-0.4-1.6s0.1-1.1,0.4-1.5c0.2-0.5,0.6-0.8,1-1.1
		s0.9-0.4,1.4-0.4s1,0.1,1.4,0.4s0.8,0.6,1,1.1c0.2,0.5,0.4,1,0.4,1.5c0,0.6-0.1,1.1-0.4,1.5c-0.2,0.5-0.6,0.8-1,1.1
		s-0.9,0.4-1.4,0.4S83.6,139.9,83.2,139.7z M85.7,139c0.3-0.2,0.5-0.5,0.7-0.8c0.2-0.3,0.3-0.7,0.3-1.2c0-0.4-0.1-0.8-0.3-1.2
		s-0.4-0.6-0.7-0.8c-0.3-0.2-0.6-0.3-1-0.3c-0.4,0-0.7,0.1-1,0.3c-0.3,0.2-0.5,0.5-0.7,0.8c-0.2,0.3-0.3,0.7-0.3,1.2
		c0,0.4,0.1,0.8,0.3,1.2c0.2,0.3,0.4,0.6,0.7,0.8c0.3,0.2,0.6,0.3,1,0.3C85,139.3,85.4,139.2,85.7,139z"/>
	<path class="st1" d="M88.7,139.9v-5.6h3.7v0.7h-2.9v4.9H88.7z"/>
	<path class="st1" d="M97.6,134.3h0.8v5.6h-0.8v-4.5l-3.3,4.5h-0.8v-5.6h0.8v4.5L97.6,134.3z"/>
	<path class="st1" d="M104.2,134.3h0.8v5.6h-0.8v-4.5l-3.3,4.5h-0.8v-5.6h0.8v4.5L104.2,134.3z"/>
</g>
<g>
	<path class="st2" d="M6.2,161v-10.3h1.1v8.8l5.5-8.8h1.1l0,10.3h-1.1v-8.6L7.3,161H6.2z"/>
	<path class="st2" d="M15.5,160.1h0.5c0.4,0,0.8-0.4,1-1.1c0.2-0.7,0.4-1.9,0.4-3.4v-1.6H22v7.1h-1v-6.1h-2.7v1
		c0,1.6-0.2,2.8-0.5,3.8s-1,1.4-1.9,1.4h-0.4V160.1z"/>
	<path class="st2" d="M25.1,160.7c-0.5-0.3-1-0.8-1.3-1.4c-0.3-0.6-0.5-1.2-0.5-2c0-0.7,0.1-1.4,0.4-1.9c0.3-0.6,0.7-1,1.2-1.3
		s1.1-0.5,1.8-0.5c0.7,0,1.3,0.2,1.8,0.5c0.5,0.3,1,0.8,1.3,1.3c0.3,0.6,0.5,1.2,0.5,2s-0.1,1.4-0.4,2c-0.3,0.6-0.7,1-1.2,1.3
		c-0.5,0.3-1.1,0.5-1.8,0.5C26.2,161.2,25.6,161.1,25.1,160.7z M28.2,159.9c0.4-0.2,0.7-0.6,0.9-1c0.2-0.4,0.3-0.9,0.3-1.5
		c0-0.5-0.1-1-0.3-1.5c-0.2-0.4-0.5-0.8-0.9-1c-0.4-0.2-0.8-0.4-1.3-0.4c-0.5,0-0.9,0.1-1.3,0.4s-0.7,0.6-0.9,1
		c-0.2,0.4-0.3,0.9-0.3,1.5c0,0.6,0.1,1,0.3,1.5c0.2,0.4,0.5,0.8,0.9,1s0.8,0.4,1.3,0.4C27.4,160.3,27.8,160.2,28.2,159.9z"/>
	<path class="st2" d="M31.9,161v-7.1h1v2.9h4.2v-2.9h1v7.1h-1v-3.2H33v3.2H31.9z"/>
	<path class="st2" d="M40.3,153.9h1v2.4H43c0.8,0,1.4,0.2,1.8,0.6c0.4,0.4,0.6,1,0.6,1.7c0,0.7-0.2,1.3-0.7,1.7
		c-0.4,0.4-1.1,0.6-1.9,0.6h-2.6V153.9z M42.9,160.1c0.5,0,0.8-0.1,1.1-0.4c0.3-0.3,0.4-0.6,0.4-1c0-0.4-0.1-0.8-0.4-1
		c-0.3-0.2-0.6-0.4-1.1-0.4h-1.6v2.8H42.9z M46.7,161v-7.1h1v7.1H46.7z"/>
	<path class="st2" d="M56.4,150.7h6.1v1h-4.9v3.4H60c1.1,0,1.9,0.3,2.5,0.8c0.6,0.5,0.9,1.3,0.9,2.1c0,0.9-0.3,1.6-0.8,2.2
		c-0.6,0.5-1.3,0.8-2.3,0.8h-3.8V150.7z M60,160.1c0.6,0,1.2-0.2,1.5-0.5c0.4-0.4,0.6-0.9,0.6-1.5s-0.2-1.1-0.6-1.5
		c-0.4-0.4-0.9-0.5-1.5-0.5h-2.5v4H60z"/>
	<path class="st2" d="M69.6,154.1c0.5,0.3,0.9,0.7,1.2,1.3c0.3,0.5,0.4,1.1,0.4,1.8c0,0.2,0,0.3,0,0.4h-5.8c0,0.7,0.3,1.3,0.7,1.9
		c0.4,0.5,1,0.8,1.8,0.8c0.6,0,1.1-0.1,1.5-0.3c0.4-0.2,0.7-0.5,1-0.9l0.8,0.5c-0.3,0.5-0.8,0.9-1.3,1.2s-1.2,0.4-1.9,0.4
		c-0.7,0-1.3-0.2-1.8-0.5c-0.5-0.3-1-0.8-1.3-1.3c-0.3-0.6-0.5-1.2-0.5-2s0.1-1.4,0.4-2c0.3-0.6,0.7-1,1.2-1.3s1.1-0.5,1.8-0.5
		C68.5,153.7,69,153.8,69.6,154.1z M70.2,156.8c-0.1-0.7-0.3-1.3-0.7-1.7c-0.4-0.4-0.9-0.6-1.6-0.6c-0.7,0-1.2,0.2-1.6,0.6
		c-0.4,0.4-0.7,0.9-0.8,1.6H70.2z"/>
	<path class="st2" d="M78,154.2c0.5,0.3,1,0.8,1.3,1.3c0.3,0.6,0.5,1.2,0.5,2c0,0.7-0.1,1.4-0.4,1.9c-0.3,0.6-0.7,1-1.2,1.3
		c-0.5,0.3-1.1,0.5-1.8,0.5c-0.5,0-1-0.1-1.4-0.3c-0.4-0.2-0.8-0.5-1.1-1v4.1h-1v-10.1h1v1c0.3-0.4,0.6-0.7,1.1-0.9
		c0.4-0.2,0.9-0.3,1.4-0.3C76.9,153.7,77.5,153.8,78,154.2z M77.5,159.9c0.4-0.2,0.7-0.6,0.9-1c0.2-0.4,0.3-0.9,0.3-1.5
		c0-0.6-0.1-1-0.3-1.5c-0.2-0.4-0.5-0.8-0.9-1s-0.8-0.4-1.3-0.4c-0.5,0-0.9,0.1-1.3,0.4s-0.7,0.6-0.9,1s-0.3,0.9-0.3,1.5
		c0,0.5,0.1,1,0.3,1.5s0.5,0.8,0.9,1s0.8,0.4,1.3,0.4C76.7,160.3,77.2,160.2,77.5,159.9z"/>
	<path class="st2" d="M86,154.1c0.5,0.3,0.9,0.7,1.2,1.3c0.3,0.5,0.4,1.1,0.4,1.8c0,0.2,0,0.3,0,0.4h-5.8c0,0.7,0.3,1.3,0.7,1.9
		c0.4,0.5,1,0.8,1.8,0.8c0.6,0,1.1-0.1,1.5-0.3c0.4-0.2,0.7-0.5,1-0.9l0.8,0.5c-0.3,0.5-0.8,0.9-1.3,1.2s-1.2,0.4-1.9,0.4
		c-0.7,0-1.3-0.2-1.8-0.5c-0.5-0.3-1-0.8-1.3-1.3c-0.3-0.6-0.5-1.2-0.5-2s0.1-1.4,0.4-2c0.3-0.6,0.7-1,1.2-1.3s1.1-0.5,1.8-0.5
		C84.9,153.7,85.5,153.8,86,154.1z M86.6,156.8c-0.1-0.7-0.3-1.3-0.7-1.7c-0.4-0.4-0.9-0.6-1.6-0.6c-0.7,0-1.2,0.2-1.6,0.6
		c-0.4,0.4-0.7,0.9-0.8,1.6H86.6z"/>
	<path class="st2" d="M88,161l2.7-3.7l-2.4-3.4h1.1l2.1,2.9h1v-2.9h1v2.9h1l2.1-2.9h1.1l-2.4,3.4L98,161h-1.2l-2.3-3.2h-1v3.2h-1
		v-3.2h-1l-2.3,3.2H88z"/>
	<path class="st2" d="M105,161h-1.2l-2.5-3.2h-1.1v3.2h-1v-7.1h1v2.9h1.1l2.2-2.9h1.1l-2.6,3.4L105,161z"/>
	<path class="st2" d="M107.4,160.7c-0.5-0.3-1-0.8-1.3-1.4c-0.3-0.6-0.5-1.2-0.5-2c0-0.7,0.1-1.4,0.4-1.9c0.3-0.6,0.7-1,1.2-1.3
		s1.1-0.5,1.8-0.5c0.7,0,1.3,0.2,1.8,0.5c0.5,0.3,1,0.8,1.3,1.3c0.3,0.6,0.5,1.2,0.5,2s-0.1,1.4-0.4,2c-0.3,0.6-0.7,1-1.2,1.3
		c-0.5,0.3-1.1,0.5-1.8,0.5C108.6,161.2,108,161.1,107.4,160.7z M110.5,159.9c0.4-0.2,0.7-0.6,0.9-1c0.2-0.4,0.3-0.9,0.3-1.5
		c0-0.5-0.1-1-0.3-1.5c-0.2-0.4-0.5-0.8-0.9-1c-0.4-0.2-0.8-0.4-1.3-0.4c-0.5,0-0.9,0.1-1.3,0.4s-0.7,0.6-0.9,1
		c-0.2,0.4-0.3,0.9-0.3,1.5c0,0.6,0.1,1,0.3,1.5c0.2,0.4,0.5,0.8,0.9,1s0.8,0.4,1.3,0.4C109.7,160.3,110.1,160.2,110.5,159.9z"/>
	<path class="st2" d="M119.8,157.7c0.2,0.3,0.4,0.7,0.4,1.2c0,0.6-0.2,1.1-0.7,1.5c-0.4,0.4-1,0.5-1.8,0.5h-3.5v-7.1h3.2
		c0.7,0,1.3,0.2,1.7,0.5c0.4,0.3,0.6,0.8,0.6,1.3c0,0.4-0.1,0.7-0.3,0.9c-0.2,0.2-0.4,0.4-0.8,0.5
		C119.3,157.2,119.6,157.4,119.8,157.7z M115.3,156.8h2.3c0.7,0,1.1-0.3,1.1-1c0-0.3-0.1-0.5-0.3-0.7c-0.2-0.2-0.5-0.2-0.9-0.2h-2.2
		V156.8z M118.7,159.8c0.3-0.2,0.4-0.5,0.4-0.8c0-0.4-0.1-0.8-0.4-1c-0.3-0.2-0.6-0.4-1.1-0.4h-2.3v2.5h2.3
		C118.1,160.1,118.5,160,118.7,159.8z"/>
	<path class="st2" d="M123,160.7c-0.5-0.3-1-0.8-1.3-1.4c-0.3-0.6-0.5-1.2-0.5-2c0-0.7,0.1-1.4,0.4-1.9c0.3-0.6,0.7-1,1.2-1.3
		s1.1-0.5,1.8-0.5c0.7,0,1.3,0.2,1.8,0.5c0.5,0.3,1,0.8,1.3,1.3c0.3,0.6,0.5,1.2,0.5,2s-0.1,1.4-0.4,2c-0.3,0.6-0.7,1-1.2,1.3
		c-0.5,0.3-1.1,0.5-1.8,0.5C124.1,161.2,123.5,161.1,123,160.7z M126,159.9c0.4-0.2,0.7-0.6,0.9-1c0.2-0.4,0.3-0.9,0.3-1.5
		c0-0.5-0.1-1-0.3-1.5c-0.2-0.4-0.5-0.8-0.9-1c-0.4-0.2-0.8-0.4-1.3-0.4c-0.5,0-0.9,0.1-1.3,0.4s-0.7,0.6-0.9,1
		c-0.2,0.4-0.3,0.9-0.3,1.5c0,0.6,0.1,1,0.3,1.5c0.2,0.4,0.5,0.8,0.9,1s0.8,0.4,1.3,0.4C125.2,160.3,125.7,160.2,126,159.9z"/>
	<path class="st2" d="M135.1,153.9h1v7.1h-1v-5.6l-4.2,5.6h-1v-7.1h1v5.7L135.1,153.9z M131.3,152.4c-0.4-0.3-0.6-0.6-0.6-1.1h1
		c0,0.5,0.4,0.7,1.1,0.7c0.8,0,1.1-0.2,1.1-0.7h1c0,0.4-0.2,0.8-0.6,1.1c-0.4,0.3-0.9,0.4-1.6,0.4S131.7,152.7,131.3,152.4z"/>
</g>
<g>
	<g>
		<path class="st3" d="M91.4,36.4C90.8,25.5,82,15.2,67,7.6c-14.9,7.9-23.6,18.2-24.2,28.9c-0.1,1.3,0,2.6,0.2,4
			c10.6,5.1,18.7,10.8,24.2,16.8c5.6-6.1,13.7-11.7,24.1-16.8C91.4,39.1,91.5,37.8,91.4,36.4z"/>
		<path class="st3" d="M91.4,78C90.8,89,82,99.3,67,106.8c-14.9-7.9-23.6-18.2-24.2-28.9c-0.1-1.3,0-2.6,0.2-4
			c10.6-5.1,18.7-10.8,24.2-16.8c5.6,6.1,13.7,11.7,24.1,16.8C91.4,75.3,91.5,76.6,91.4,78z"/>
	</g>
	<g>
		<path class="st3" d="M46.3,32.9c-11,0.6-21.3,9.4-28.8,24.4C25.4,72.2,35.7,81,46.4,81.5c1.3,0.1,2.6,0,4-0.2
			c5.1-10.6,10.8-18.7,16.8-24.2c-6.1-5.6-11.7-13.7-16.8-24.1C49,32.9,47.7,32.8,46.3,32.9z"/>
		<path class="st3" d="M87.9,32.9c11,0.6,21.3,9.4,28.8,24.4C108.8,72.2,98.5,81,87.8,81.5c-1.3,0.1-2.6,0-4-0.2
			c-5.1-10.6-10.8-18.7-16.8-24.2c6.1-5.6,11.7-13.7,16.8-24.1C85.2,32.9,86.5,32.8,87.9,32.9z"/>
	</g>
	<g>
		<path class="st4" d="M63.4,38.7c-0.6-0.4-1.1-0.9-1.3-1.5c-0.3-0.6-0.4-1.2-0.4-1.8c0-0.7,0.2-1.4,0.6-2c0.4-0.6,0.9-1.2,1.4-1.7
			c0.6-0.5,1.3-1.1,2.3-1.8l0.8-0.6c-0.8-0.9-1.5-1.8-2-2.5c-0.5-0.8-0.7-1.6-0.7-2.6c0-0.9,0.2-1.6,0.6-2.2c0.4-0.6,1-1,1.6-1.3
			c0.7-0.3,1.4-0.4,2.1-0.4c1.1,0,1.9,0.3,2.6,0.9c0.6,0.6,1,1.4,1,2.5c0,1.1-0.3,2-0.9,2.8c-0.6,0.8-1.4,1.7-2.5,2.5
			c0.7,0.7,1.2,1.3,1.6,1.8c0.4,0.5,0.7,1,1,1.6c0.3,0.6,0.4,1.2,0.4,1.9c0,1-0.3,1.8-0.8,2.6c-0.6,0.7-1.3,1.3-2.2,1.7
			s-1.8,0.6-2.8,0.6C64.8,39.3,64,39.1,63.4,38.7z M67.8,37.9c0.6-0.3,1-0.8,1.4-1.4c0.4-0.6,0.5-1.3,0.5-2c0-0.8-0.2-1.5-0.6-2.2
			c-0.4-0.7-1-1.4-1.7-2.2c-1,0.7-1.7,1.3-2.3,1.8c-0.6,0.5-1,1-1.4,1.6c-0.4,0.6-0.6,1.3-0.6,1.9c0,0.6,0.1,1.1,0.4,1.6
			s0.6,0.8,1.1,1.1s0.9,0.4,1.4,0.4C66.6,38.4,67.2,38.2,67.8,37.9z M70,26.2c0.5-0.7,0.7-1.6,0.7-2.5c0-0.9-0.2-1.6-0.6-2
			c-0.4-0.5-0.9-0.7-1.5-0.7c-0.4,0-0.8,0.1-1.2,0.3c-0.4,0.2-0.7,0.5-1,1c-0.3,0.4-0.4,1-0.4,1.7c0,0.8,0.2,1.5,0.5,2.2
			c0.4,0.7,0.9,1.4,1.6,2.2C68.9,27.7,69.5,26.9,70,26.2z"/>
	</g>
	<g>
		<g>
			<path class="st4" d="M63.4,90c-0.6-0.4-1.1-0.9-1.3-1.5c-0.3-0.6-0.4-1.2-0.4-1.8c0-0.7,0.2-1.4,0.6-2c0.4-0.6,0.9-1.2,1.4-1.7
				c0.6-0.5,1.3-1.1,2.3-1.8l0.8-0.6c-0.8-0.9-1.5-1.8-2-2.5c-0.5-0.8-0.7-1.6-0.7-2.6c0-0.9,0.2-1.6,0.6-2.2c0.4-0.6,1-1,1.6-1.3
				c0.7-0.3,1.4-0.4,2.1-0.4c1.1,0,1.9,0.3,2.6,0.9c0.6,0.6,1,1.4,1,2.5c0,1.1-0.3,2-0.9,2.8c-0.6,0.8-1.4,1.7-2.5,2.5
				c0.7,0.7,1.2,1.3,1.6,1.8c0.4,0.5,0.7,1,1,1.6s0.4,1.2,0.4,1.9c0,1-0.3,1.8-0.8,2.6c-0.6,0.7-1.3,1.3-2.2,1.7s-1.8,0.6-2.8,0.6
				C64.8,90.6,64,90.4,63.4,90z M67.8,89.2c0.6-0.3,1-0.8,1.4-1.4c0.4-0.6,0.5-1.3,0.5-2c0-0.8-0.2-1.5-0.6-2.2
				c-0.4-0.7-1-1.4-1.7-2.2c-1,0.7-1.7,1.3-2.3,1.8s-1,1-1.4,1.6c-0.4,0.6-0.6,1.3-0.6,1.9c0,0.6,0.1,1.1,0.4,1.6s0.6,0.8,1.1,1.1
				s0.9,0.4,1.4,0.4C66.6,89.7,67.2,89.5,67.8,89.2z M70,77.5c0.5-0.7,0.7-1.6,0.7-2.5c0-0.9-0.2-1.6-0.6-2
				c-0.4-0.5-0.9-0.7-1.5-0.7c-0.4,0-0.8,0.1-1.2,0.3c-0.4,0.2-0.7,0.5-1,1c-0.3,0.4-0.4,1-0.4,1.7c0,0.8,0.2,1.5,0.5,2.2
				c0.4,0.7,0.9,1.4,1.6,2.2C68.9,78.9,69.5,78.2,70,77.5z"/>
		</g>
	</g>
	<g>
		<path class="st4" d="M33.4,65.8c0.7-0.3,1.7-0.4,3.1-0.4c0.5-1.1,1-2.6,1.5-4.5c0.5-1.9,1.1-4.2,1.7-7.1c0.1-0.4,0.3-1.3,0.6-2.8
			s0.6-2.5,0.9-3.2c-1.4,0-2.5,0.1-3.3,0.2c-0.8,0.1-1.7,0.2-2.6,0.4c0.1-0.7,0.6-1.2,1.5-1.5c0.8-0.3,2.1-0.5,3.9-0.5
			c1.1,0,2.4,0.1,3.6,0.2c1.3,0.1,2.4,0.2,3.2,0.4c-0.4,0.4-0.8,0.6-1.2,0.7c-0.4,0.1-0.9,0.2-1.4,0.2c-1.4,0-2.3,0-2.9,0L42,48.7
			c-1.1,6-1.9,10.1-2.4,12.2c-0.3,1.2-0.6,2.2-1,2.9c-0.4,0.7-0.8,1.3-1.2,1.6c0.8,0.1,1.7,0.1,2.5,0.2c1.3,0.2,2.3,0.2,3.2,0.3
			c-0.8,0.8-1.7,1.1-3,1.1h-1.3c-1.6,0-2.9,0-3.8,0.1c-0.9,0-1.9,0.2-2.8,0.4C32.3,66.6,32.7,66,33.4,65.8z"/>
	</g>
	<g>
		<g>
			<path class="st4" d="M87.8,66.9c-0.5-0.3-0.7-0.9-0.7-1.6c0-0.1,0-0.1,0.1-0.1c0.1,0,0.3,0,0.6,0.1c0.4,0.1,1,0.1,1.8,0.1
				c1.9,0,3.7-0.3,5.3-0.9c1.6-0.6,2.9-1.4,3.8-2.3c0.9-1,1.4-2,1.4-3c0-1.3-0.6-2.1-1.9-2.6C97,56.2,95.4,56,93.5,56l-2,0
				c-0.3,0.9-0.6,2.2-1.1,4c-0.4,1.4-0.8,2.8-1.2,4.4c-0.4,0-0.8-0.1-1.1-0.4c-0.3-0.2-0.4-0.5-0.4-0.9c0-0.2,0.1-0.5,0.2-0.8
				c0.1-0.3,0.2-0.6,0.2-0.7c0.5-1.8,1.4-4.2,2.5-7.3c1.1-3,2.1-5.5,3.1-7.4c-1,0.2-2,0.6-3,1.2c-0.3,0.2-0.5,0.3-0.6,0.3
				c-0.1,0-0.3-0.1-0.5-0.3c-0.2-0.2-0.3-0.3-0.3-0.4c1.2-0.5,2.2-0.8,3.1-1.1c0.9-0.2,1.9-0.4,3.2-0.4c1.6,0,3,0.3,4.2,0.9
				c1.2,0.6,1.8,1.7,1.8,3.3c0,1.6-0.6,2.7-1.7,3.5c-1.2,0.8-2.6,1.3-4.3,1.6c4,0.2,6,1.7,6,4.2c0,1.6-0.6,2.9-1.9,4.1
				s-2.8,2-4.6,2.7c-1.8,0.6-3.4,0.9-4.8,0.9C89,67.4,88.3,67.3,87.8,66.9z M97.5,54.1c1.6-0.8,2.4-2.1,2.4-3.9
				c0-2.3-1.5-3.4-4.4-3.4c-0.2,0-0.4,0-0.5,0c-1,2-2.1,4.9-3.2,8.6C94,55.3,95.9,54.9,97.5,54.1z"/>
		</g>
	</g>
	<g>
		<path class="st4" d="M61.8,54.2c1.4,1.5,3.3,2.4,5.2,2.7c-0.3-1.9-1.2-3.8-2.7-5.2c-1.4-1.4-3.2-2.2-4.9-2.4
			C59.6,51.1,60.4,52.8,61.8,54.2z"/>
		<path class="st4" d="M69.5,62c1.4,1.5,3.3,2.4,5.2,2.7c-0.3-1.9-1.2-3.8-2.7-5.2c-1.4-1.4-3.2-2.2-4.9-2.4
			C67.3,58.8,68.2,60.6,69.5,62z"/>
	</g>
	<g>
		<path class="st4" d="M64.2,62.3c1.5-1.4,2.4-3.3,2.7-5.2c-1.9,0.3-3.8,1.2-5.2,2.7c-1.4,1.4-2.2,3.2-2.4,4.9
			C61.1,64.5,62.9,63.6,64.2,62.3z"/>
		<path class="st4" d="M72,54.5c1.5-1.4,2.4-3.3,2.7-5.2c-1.9,0.3-3.8,1.2-5.2,2.7c-1.4,1.4-2.2,3.2-2.4,4.9
			C68.8,56.7,70.6,55.9,72,54.5z"/>
	</g>
</g>
</svg>
